<?xml version="1.0" encoding="utf-8"?>
<!-- Generator: Adobe Illustrator 25.4.2, SVG Export Plug-In . SVG Version: 6.00 Build 0)  -->
<svg version="1.1" id="Layer_1" xmlns="http://www.w3.org/2000/svg" xmlns:xlink="http://www.w3.org/1999/xlink" x="0px" y="0px"
	 viewBox="0 0 66 66" style="enable-background:new 0 0 66 66;" xml:space="preserve">
<style type="text/css">
	.st0{fill:#FFFFFF;}
	.st1{fill-rule:evenodd;clip-rule:evenodd;fill:#FFFFFF;}
</style>
<path class="st0" d="M59.2,0.5H7.7L0.5,7.7v51.5l7.2,7.3h51.5l7.2-7.2V7.7L59.2,0.5z M59,65.6H8.1l-6.7-6.7V39.7l2-2V6.1l4.7-4.7
	h50.8l6.7,6.7v19.4l-2.1,2V61L59,65.6z"/>
<g>
	<path class="st1" d="M20.6,22.4h25.9c0.7,0,1.2,0.6,1.2,1.2l0,0c0,0.7-0.6,1.2-1.2,1.2H20.6c-0.7,0-1.2-0.6-1.2-1.2l0,0
		C19.3,22.9,19.9,22.4,20.6,22.4L20.6,22.4z"/>
	<path class="st1" d="M56.2,18c-0.2-0.5-0.5-1-0.9-1.4l0,0l0,0l0,0c-0.4-0.4-0.8-0.7-1.4-0.9c-0.5-0.2-1-0.3-1.6-0.3H14.6
		c-1.1,0-2.2,0.4-3,1.2c-0.4,0.4-0.7,0.8-0.9,1.4c-0.2,0.5-0.3,1-0.3,1.6v5.6c0,0.6,0.1,1.1,0.3,1.6c0.2,0.4,0.4,0.8,0.7,1.1l0,0
		l0.2,0.2c0.4,0.4,0.8,0.7,1.3,0.9c0.5,0.2,1,0.3,1.6,0.4l0,0c0.1,0,0.2,0,0.3,0.1l0,0c0.1,0.1,0.2,0.2,0.3,0.3
		c0.1,0.2,0.3,0.3,0.4,0.5l0,0c0.1,0.2,0.2,0.4,0.3,0.6c0.2,0.5,0.5,0.9,0.8,1.3c0.3,0.4,0.7,0.7,1.1,0.9s0.8,0.4,1.3,0.5
		c0.4,0.1,0.9,0.1,1.4,0.1h26.2c0.5,0,0.9,0,1.4-0.1c0.4-0.1,0.9-0.2,1.3-0.5c0.4-0.2,0.8-0.5,1.1-0.9l0,0c0.3-0.4,0.6-0.8,0.8-1.3
		c0.1-0.2,0.2-0.4,0.3-0.6s0.2-0.4,0.4-0.5c0.1-0.1,0.2-0.2,0.3-0.3l0,0c0.1-0.1,0.2-0.1,0.3-0.1l0,0c0.6,0,1.1-0.2,1.6-0.4
		c0.5-0.2,1-0.5,1.3-0.9c0.4-0.4,0.7-0.8,0.9-1.3s0.3-1,0.3-1.6v-5.6C56.5,19,56.4,18.5,56.2,18z M54.4,25.2c0,0.6-0.2,1.1-0.6,1.4
		c-0.4,0.4-0.9,0.6-1.5,0.7c-0.9,0-1.6,0.5-2.1,1.1c-0.5,0.5-0.8,1.1-1,1.6c-0.3,0.6-0.6,1-1,1.2c-0.5,0.3-1,0.3-1.7,0.3H20.4
		c-0.6,0-1.2-0.1-1.6-0.3c-0.4-0.2-0.7-0.6-1-1.2c-0.2-0.5-0.5-1.1-1-1.6c-0.5-0.6-1.2-1-2.1-1.1c-0.6,0-1.1-0.3-1.5-0.7l0,0
		c-0.4-0.4-0.6-0.9-0.6-1.4v-5.6c0-0.6,0.2-1.1,0.6-1.5s0.9-0.6,1.5-0.6h37.6c0.6,0,1.1,0.2,1.5,0.6l0,0c0.4,0.4,0.6,0.9,0.6,1.5
		C54.4,19.6,54.4,25.2,54.4,25.2z"/>
</g>
<g>
	<path class="st0" d="M15.4,47.4v8.4h-1.2v-3.6H9.4v3.6H8.2v-8.4h1.2V51h4.8v-3.6H15.4z"/>
	<path class="st0" d="M17.5,55.8v-8.4h4.3c0.4,0,0.9,0.1,1.2,0.2s0.7,0.3,0.9,0.6s0.5,0.6,0.6,0.9s0.2,0.8,0.2,1.2v2.5
		c0,0.4-0.1,0.8-0.2,1.2s-0.3,0.7-0.6,0.9s-0.6,0.5-0.9,0.6s-0.8,0.2-1.2,0.2L17.5,55.8L17.5,55.8z M21.8,54.6c0.6,0,1-0.2,1.3-0.5
		s0.5-0.7,0.5-1.3v-2.4c0-0.3,0-0.5-0.1-0.7s-0.2-0.4-0.3-0.5s-0.3-0.3-0.5-0.3s-0.5-0.1-0.7-0.1h-3.1v6h2.9V54.6z"/>
	<path class="st0" d="M31,55.8l-3.1-6.2v6.2h-1.2v-8.4H28l3.2,6.3l3.2-6.3h1.3v8.4h-1.2v-6.2l-3.1,6.2H31z"/>
	<path class="st0" d="M39,47.4v8.4h-1.2v-8.4H39z"/>
	<path class="st0" d="M46,48.6v1.1h-1.2v-1.1c0-0.2,0-0.3,0.1-0.5s0.1-0.3,0.3-0.4s0.2-0.2,0.4-0.3s0.3-0.1,0.5-0.1h3.8
		c0.2,0,0.3,0,0.5,0.1s0.3,0.2,0.4,0.3s0.2,0.2,0.3,0.4s0.1,0.3,0.1,0.5v1.5c0,0.2,0,0.3,0,0.4S51,50.7,51,50.8s-0.2,0.2-0.3,0.3
		s-0.2,0.2-0.4,0.2l-4.2,2v1.2h4v-1.1h1.2v2.3h-6.4v-2.2c0-0.2,0-0.3,0-0.4s0.1-0.2,0.1-0.3s0.2-0.2,0.3-0.3s0.2-0.2,0.4-0.2l4.2-2
		v-1.7H46z"/>
	<path class="st0" d="M53,54.1h1.8v1.8H53V54.1z"/>
	<path class="st0" d="M58.8,47.4v8.4h-1.2v-7.2h-1.4v-1.2H58.8z"/>
</g>
</svg>
