<?xml version="1.0" encoding="utf-8"?>
<!-- Generator: Adobe Illustrator 25.4.1, SVG Export Plug-In . SVG Version: 6.00 Build 0)  -->
<svg version="1.1" id="Layer_1" xmlns="http://www.w3.org/2000/svg" xmlns:xlink="http://www.w3.org/1999/xlink" x="0px" y="0px"
	 viewBox="0 0 64 35.1" style="enable-background:new 0 0 64 35.1;" xml:space="preserve">
<style type="text/css">
	.st0{fill:#FFFFFF;}
</style>
<g>
	<path class="st0" d="M7.8,11.5l4.1,5.4c-2,2.3-3.6,5-4.5,7.9c-0.9,2.9-1.3,6-1.1,9.1L6.4,35H1.3l-0.1-1C0.4,26.5,2.5,18.8,7,12.6
		C7.3,12.2,7.5,11.9,7.8,11.5z"/>
	<path class="st0" d="M26,0.5c0.3,0,0.5-0.1,0.8-0.1L26,9.8c-1.9,0.2-3.8,0.6-5.6,1.3c-2,0.7-3.9,1.8-5.6,3.2l-4.3-5.6
		C14.8,4.5,20.1,1.7,26,0.5z"/>
	<path class="st0" d="M62.8,34.1l-0.1,1H46.4l0.4-1.4c0.7-2.5,0.9-5.2,0.5-7.7c-0.1-0.5-0.2-0.9-0.3-1.3l6.9-7.6l0.3-0.3l0.2-0.3
		c0.6-1.3,0.3-2.3-0.1-2.8c-0.3-0.5-0.8-1-1.4-1.2c-0.8-0.3-1.7-0.3-2.5,0.1l-7.4,4c-1.4-1.6-3.1-3-5-4.2c-2.5-1.4-5.3-2.3-8.1-2.6
		L30.7,0c15-0.6,28.7,9.8,31.7,25C63,28,63.2,31,62.8,34.1z"/>
	<path class="st0" d="M52.1,14.9c-0.1-0.2-0.4-0.2-0.6-0.2L30,26.7c-0.4,0.2-0.8,0.6-1.1,0.9c-1.7,1.8-1.5,4.6,0.3,6.3
		s4.7,1.5,6.3-0.3l16.6-18.2C52.2,15.2,52.3,15.1,52.1,14.9z M32,32.6c-1.1-0.1-1.9-1.1-1.8-2.2s1.1-1.9,2.2-1.8
		c1.1,0.1,1.9,1.1,1.8,2.2S33.1,32.7,32,32.6z"/>
</g>
</svg>
