<?xml version="1.0" encoding="utf-8"?>
<!-- Generator: Adobe Illustrator 25.2.3, SVG Export Plug-In . SVG Version: 6.00 Build 0)  -->
<svg version="1.1" id="Layer_1" xmlns="http://www.w3.org/2000/svg" xmlns:xlink="http://www.w3.org/1999/xlink" x="0px" y="0px"
	 viewBox="0 0 66 66" style="enable-background:new 0 0 66 66;" xml:space="preserve">
<style type="text/css">
	.st0{fill:#FFFFFF;}
</style>
<g>
	<g>
		<path d="M972.1,1023.6h-50.8l-7.2-7.2v-50.8l7.2-7.2h50.8l7.2,7.2v50.8L972.1,1023.6z M921.7,1022.7h50l6.6-6.6v-50l-6.6-6.6h-50
			l-6.6,6.6v50L921.7,1022.7z"/>
	</g>
	<polygon points="914.6,965.9 914.6,997.7 917,995.3 917,963.5 	"/>
	<polygon points="978.8,1016.6 978.8,984.8 976.3,987.1 976.3,1019 	"/>
	<polygon points="921.9,979.1 925.1,979.1 925.1,991.5 928.7,991.5 928.7,976.3 921.9,976.3 	"/>
	<path d="M967.9,986v-9.7H964l-9.7,9.8l-0.1,0.1v2.5h10v3.1h3.6v-3.1h2.6V986H967.9z M958.6,986l5.8-5.9v5.9H958.6z"/>
	<path d="M936.6,996.4v4.8h8.3v-4.8h2.7v12.3H945v-5.3h-8.3v5.3H934v-12.3H936.6z"/>
	<path d="M960,998.6v1l-6.9,7.2h6.9v1.9h-10.6v-1.1l6.9-7.2h-6.2v-1.8L960,998.6L960,998.6z"/>
	<path d="M947.3,986v-9.7h-3.9l-9.7,9.8l-0.1,0.1v2.5h10v3.1h3.6v-3.1h2.6V986H947.3z M938,986l5.8-5.9v5.9H938z"/>
</g>
<g>
	<path class="st0" d="M58.8,0H7.3L0.1,7.2v51.5l7.2,7.2h51.5l7.2-7.2V7.2L58.8,0z M58.5,65.1H7.6l-6.7-6.7V39.2l2-2V5.6l4.7-4.7
		h50.8l6.7,6.7v19.4l-2.1,2v31.5L58.5,65.1z"/>
	<path class="st0" d="M22.2,29.8c0.1-0.3,0.2-0.6,0.2-1V15.7h-3.1v12.7h-8.5V15.7H7.7v13.1c0,0.4,0.1,0.7,0.2,1
		c0.1,0.3,0.3,0.6,0.6,0.8C8.7,30.8,9,31,9.4,31.1c0.3,0.1,0.7,0.2,1.1,0.2h9.3c0.4,0,0.7-0.1,1.1-0.2c0.3-0.1,0.6-0.3,0.9-0.5
		C21.9,30.4,22.1,30.1,22.2,29.8z"/>
	<polygon class="st0" points="40.4,31.3 40.4,15.7 37.2,15.7 37.2,22.1 28.7,22.1 28.7,15.7 25.6,15.7 25.6,31.3 28.7,31.3 28.7,25 
		37.2,25 37.2,31.3 	"/>
	<path class="st0" d="M56.7,17.2c-0.5-0.5-1.2-0.9-1.9-1.1c-0.7-0.3-1.6-0.4-2.5-0.4h-8.7v15.6h8.7c0.9,0,1.8-0.1,2.5-0.4
		c0.7-0.3,1.4-0.6,1.9-1.1c0.5-0.5,1-1.1,1.2-1.8c0.3-0.7,0.4-1.5,0.4-2.3v-4.4c0-0.8-0.1-1.6-0.4-2.3
		C57.6,18.3,57.2,17.7,56.7,17.2z M55.2,21.3v4.4c0,0.9-0.2,1.5-0.7,2c-0.5,0.5-1.2,0.7-2.2,0.7h-5.5v-9.7h5.5
		c0.5,0,0.9,0.1,1.3,0.2c0.4,0.1,0.7,0.3,0.9,0.5c0.2,0.2,0.4,0.5,0.6,0.8C55.1,20.5,55.2,20.9,55.2,21.3z"/>
	<polygon class="st0" points="14.1,48.2 14.8,49.5 17.1,48 17.1,55.9 18.8,55.9 18.8,46.1 17.3,46.1 	"/>
	<polygon class="st0" points="27,49.8 25.3,49.8 25.3,52.7 22.6,52.7 25.3,46.1 23.5,46.1 20.9,52.9 20.9,54.1 25.3,54.1 25.3,55.9 
		27,55.9 27,54.1 28.1,54.1 28.1,52.7 27,52.7 	"/>
	<polygon class="st0" points="35.5,49.8 33.8,49.8 33.8,52.7 31.1,52.7 33.8,46.1 32,46.1 29.4,52.9 29.4,54.1 33.8,54.1 33.8,55.9 
		35.5,55.9 35.5,54.1 36.5,54.1 36.5,52.7 35.5,52.7 	"/>
	<polygon class="st0" points="44,51.1 39.3,51.1 39.3,47.6 38.1,47.6 38.1,55.9 39.3,55.9 39.3,52.3 44,52.3 44,55.9 45.2,55.9 
		45.2,47.6 44,47.6 	"/>
	<polygon class="st0" points="46.9,50.9 50.1,50.9 46.8,55.6 46.8,55.9 52,55.9 52,54.7 48.7,54.7 52,50 52,49.7 46.9,49.7 	"/>
</g>
</svg>
