<?xml version="1.0" encoding="utf-8"?>
<!-- Generator: Adobe Illustrator 25.0.1, SVG Export Plug-In . SVG Version: 6.00 Build 0)  -->
<svg version="1.1" id="Layer_1" xmlns="http://www.w3.org/2000/svg" xmlns:xlink="http://www.w3.org/1999/xlink" x="0px" y="0px"
	 viewBox="0 0 66 66" style="enable-background:new 0 0 66 66;" xml:space="preserve">
<style type="text/css">
	.st0{fill:#FFFFFF;}
</style>
<g>
	<path class="st0" d="M58.8,0.6H8.2L1.1,7.7v50.6l7.1,7.1h50.6l7.1-7.1V7.7L58.8,0.6z M58.4,64.4H8.6l-6.5-6.5V39l1.9-1.8V6.3
		l4.7-4.7h49.8l6.5,6.5v19.1L63,29.1v30.7L58.4,64.4z"/>
	<path class="st0" d="M16,53.1c0,0.7-0.3,1-1,1c-0.7,0-1-0.3-1-1v-3.7h-1.1v3.7c0,1.4,0.7,2,2.1,2c1.4,0,2.1-0.6,2.1-2v-3.7H16V53.1
		z"/>
	<polygon class="st0" points="22.7,55.1 26.4,55.1 26.4,54.1 23.9,54.1 23.9,52.7 25.9,52.7 25.9,51.7 23.9,51.7 23.9,50.3 
		26.4,50.3 26.4,49.3 22.7,49.3 	"/>
	<path class="st0" d="M31.4,51.2c0-1.3-0.7-1.9-2-1.9h-2.2v5.8h1.2v-1.9h1.1l0.7,1.9h1.3l-0.8-2.2C31.1,52.5,31.4,52,31.4,51.2z
		 M29.4,52.2h-1.1v-1.8h1c0.6,0,0.8,0.4,0.8,0.9C30.2,51.7,30,52.2,29.4,52.2z"/>
	<path class="st0" d="M20.2,49.4H18v5.7h1.1v-1.9h1.1c0.7,0,1.1-0.3,1.1-0.3c0.5-0.3,0.8-0.9,0.8-1.6C22.2,50,21.5,49.4,20.2,49.4z
		 M20.2,52.2h-1.1v-1.8h1c0.5,0,0.8,0.4,0.8,0.9C21,51.8,20.8,52.2,20.2,52.2z"/>
	<path class="st0" d="M10.5,51.7c-1-0.3-1.1-0.4-1.1-0.7c0-0.4,0.4-0.5,0.8-0.5c0.5,0,1.6,0.1,1.6,0.1l0.1,0l0.1-1l-0.1,0
		c0,0-1.1-0.2-1.8-0.2c-1.3,0-2,0.6-2,1.7c0,0.9,0.5,1.3,1.8,1.7c0.8,0.2,0.9,0.4,0.9,0.6c0,0.4-0.3,0.6-0.8,0.6
		c-0.6,0-1.6-0.1-1.7-0.1l-0.1,0l-0.1,1l0.1,0c0,0,1.1,0.3,1.9,0.3c1.3,0,2-0.7,2-1.8C12.2,52.5,11.8,52.1,10.5,51.7z"/>
	<path class="st0" d="M55.9,49.5h-2.1v5.7h2.1c2.2,0,2.6-1,2.6-3C58.5,50.3,58,49.5,55.9,49.5z M55.9,54.2h-0.8v-3.7h0.8
		c1.2,0,1.3,0.5,1.3,1.7C57.2,53.5,57.1,54.2,55.9,54.2z"/>
	<path class="st0" d="M41.2,49.4h-2.5v5.8h1.3v-1.9h1.2c0.8,0,1.2-0.3,1.2-0.3c0.6-0.3,0.9-0.9,0.9-1.7C43.5,50,42.7,49.4,41.2,49.4
		z M41.3,52.2h-1.2v-1.8h1.2c0.6,0,0.9,0.4,0.9,0.9C42.2,51.8,41.9,52.2,41.3,52.2z"/>
	<polygon class="st0" points="44.1,55.1 48.2,55.1 48.2,54.1 45.4,54.1 45.4,52.8 47.6,52.8 47.6,51.8 45.4,51.8 45.4,50.4 
		48.2,50.4 48.2,49.4 44.1,49.4 	"/>
	<polygon class="st0" points="49.1,55.1 53.2,55.1 53.2,54.1 50.4,54.1 50.4,52.8 52.6,52.8 52.6,51.8 50.4,51.8 50.4,50.4 
		53.2,50.4 53.2,49.4 49.1,49.4 	"/>
	<path class="st0" d="M36.6,51.7c-1.1-0.3-1.2-0.4-1.2-0.7c0-0.4,0.5-0.5,0.9-0.5c0.5,0,1.8,0.1,1.8,0.1l0.1,0l0.1-1l-0.1,0
		c0,0-1.2-0.2-2-0.2c-1.4,0-2.2,0.6-2.2,1.7c0,0.9,0.5,1.3,2,1.7c0.9,0.2,1,0.4,1,0.6c0,0.4-0.3,0.6-0.9,0.6c-0.6,0-1.8-0.1-1.8-0.1
		l-0.1,0l-0.1,1l0.1,0c0,0,1.2,0.2,2.1,0.2c1.4,0,2.2-0.7,2.2-1.8C38.4,52.4,37.9,52,36.6,51.7z"/>
	<rect x="12.5" y="12" class="st0" width="3.5" height="18.6"/>
	<path class="st0" d="M24.3,23.3h9.5c0.4,0,1.9,0,2.6-0.9c0.8-0.8,0.8-2.3,0.8-2.7v-4.1c0-0.9-0.1-2-0.9-2.8
		c-0.7-0.7-1.7-0.8-2.4-0.8H20.8v18.6h3.5V23.3z M24.3,15.2h7.8c0.6,0,1,0.1,1.2,0.3c0.4,0.4,0.4,0.9,0.4,1.2v2.1
		c0,0.3,0,0.8-0.4,1.2c-0.2,0.2-0.6,0.3-1.2,0.3h-7.8V15.2z"/>
	<path class="st0" d="M43.5,30.6h10.1c0.5,0,1.8-0.1,2.5-0.9c0.6-0.6,0.8-1.9,0.8-3v-3.3c0-1.2-0.3-2.4-0.8-3.1
		c-0.7-0.9-2-0.9-3-0.9h-9.5v-4h9.9v2.1l3.1-0.9v-0.5c0-0.7,0-2.2-0.8-3.1c-0.7-0.8-2.1-0.9-2.8-0.9H44c-0.6,0-1.9,0.1-2.6,0.9
		c-0.8,0.9-0.8,2.7-0.8,3.5v2c0,0.8,0,2.6,0.8,3.5c0.7,0.8,2.1,0.9,2.6,0.9h9.8v4.4H43.1V25l-3.1,0.8v0.4c0,0.8,0,2.5,0.8,3.5
		C41.5,30.5,42.8,30.6,43.5,30.6z"/>
	<polygon class="st0" points="25.6,45.4 46.8,39.9 45.9,45.2 57,35.9 45.3,35.5 46.8,37.5 35.1,39.2 40.2,32.8 13.8,36.1 9.4,44.1 
		30.7,38.5 	"/>
</g>
</svg>
