<?xml version="1.0" encoding="utf-8"?>
<!-- Generator: Adobe Illustrator 25.4.2, SVG Export Plug-In . SVG Version: 6.00 Build 0)  -->
<svg version="1.1" id="Layer_1" xmlns="http://www.w3.org/2000/svg" xmlns:xlink="http://www.w3.org/1999/xlink" x="0px" y="0px"
	 viewBox="0 0 66 66" style="enable-background:new 0 0 66 66;" xml:space="preserve">
<style type="text/css">
	.st0{fill:#FFFFFF;}
</style>
<g>
	<g>
		<path class="st0" d="M22.6,52.5l-1.5,0.1v3.7h-1.5v-9.1h1.5v4.1l1.5-0.1l2-4h1.8L24,51.8l2.5,4.5h-1.8L22.6,52.5z"/>
		<path class="st0" d="M35.1,47.2l-2.3,9.1h-3.1l-2.3-9.1H29l1.9,7.8h0.7l1.9-7.8H35.1z"/>
		<path class="st0" d="M36.5,47.2h2.7l2.2,7.1l2.2-7.1h2.8v9.1h-1.6v-7.5h-0.3l-2.3,7.1h-1.6l-2.3-7.1h-0.2v7.5h-1.5L36.5,47.2
			L36.5,47.2z"/>
	</g>
	<g>
		<path class="st0" d="M58.5,0.4h-51L0.4,7.5v50.9l7.1,7.2h51l7.1-7.1v-51L58.5,0.4z M64.8,27l-2,2v31.1l-4.6,4.6H7.9L1.2,58V39
			l2-1.9V5.9l4.7-4.7h50.3l6.7,6.7L64.8,27L64.8,27z"/>
		<path class="st0" d="M53.7,15.8H52c-2.6,0-4.8,2.1-4.8,4.8v1v2.2v4.9c0,3.1,2.5,5.7,5.6,5.7s5.6-2.6,5.6-5.7v-4.9v-2.2v-1
			C58.5,17.9,56.3,15.8,53.7,15.8z M53.7,22c0,0.5-0.4,1-0.8,1c-0.5,0-0.8-0.4-0.8-1v-2.6c0-0.5,0.4-1,0.8-1c0.5,0,0.8,0.4,0.8,1V22
			z"/>
		<path class="st0" d="M40,14.2H8.2c-1.2,0-2.2,1-2.2,2.2v16.4C6,34,7,35,8.2,35H40c1.2,0,2.2-1,2.2-2.2V16.4
			C42.2,15.2,41.2,14.2,40,14.2z M29.9,17.5h3.8v3.8h-3.8C29.9,21.3,29.9,17.5,29.9,17.5z M31.3,22.7v3.8h-3.8v-3.8H31.3z
			 M24.7,17.5h3.8v3.8h-3.8V17.5z M26,22.7v3.8h-3.8v-3.8H26z M19.5,17.5h3.8v3.8h-3.8V17.5z M20.6,22.7v3.8h-3.8v-3.8H20.6z
			 M14.3,17.5h3.8v3.8h-3.8V17.5z M9.2,17.5H13v3.8H9.2V17.5z M9.2,22.7h6.5v3.8H9.2V22.7z M13,31.5H9.2v-3.8H13V31.5z M18.2,31.5
			h-3.8v-3.8h3.8V31.5z M38.9,31.5H19.6v-3.8h19.3V31.5z M38.9,26.5h-6.4v-3.8H39L38.9,26.5L38.9,26.5z M38.9,21.4h-3.8v-3.8h3.8
			V21.4z"/>
		<path class="st0" d="M53.8,15.3h-1.5v-3.4c0-2,1.7-3.7,3.7-3.7h7.5v1.5H56c-1.2,0-2.3,1-2.3,2.3L53.8,15.3L53.8,15.3z"/>
		<rect x="17.6" y="1.7" class="st0" width="1.5" height="12.1"/>
	</g>
</g>
</svg>
