<?xml version="1.0" encoding="utf-8"?>
<!-- Generator: Adobe Illustrator 25.0.1, SVG Export Plug-In . SVG Version: 6.00 Build 0)  -->
<svg version="1.1" id="Layer_1" xmlns="http://www.w3.org/2000/svg" xmlns:xlink="http://www.w3.org/1999/xlink" x="0px" y="0px"
	 viewBox="0 0 66 66" style="enable-background:new 0 0 66 66;" xml:space="preserve">
<style type="text/css">
	.st0{fill:#FFFFFF;}
</style>
<path class="st0" d="M58.7,0H7.2L0,7.2v51.5L7.2,66h51.5l7.2-7.2V7.2L58.7,0z M58.4,65.1H7.6l-6.7-6.7V39.2l2-2V5.6l4.7-4.7h50.8
	l6.7,6.7v19.4l-2.1,2v31.5L58.4,65.1z"/>
<g>
	<g>
		<path d="M972.1,1023.6h-50.8l-7.2-7.2v-50.8l7.2-7.2h50.8l7.2,7.2v50.8L972.1,1023.6z M921.7,1022.7h50l6.6-6.6v-50l-6.6-6.6h-50
			l-6.6,6.6v50L921.7,1022.7z"/>
	</g>
	<polygon points="914.6,965.9 914.6,997.7 917,995.3 917,963.5 	"/>
	<polygon points="978.8,1016.6 978.8,984.8 976.3,987.1 976.3,1019 	"/>
	<polygon points="921.9,979.1 925.1,979.1 925.1,991.5 928.7,991.5 928.7,976.3 921.9,976.3 	"/>
	<path d="M967.9,986v-9.7h-3.9l-9.7,9.8l-0.1,0.1v2.5h10v3.1h3.6v-3.1h2.6V986H967.9z M958.6,986l5.8-5.9v5.9H958.6z"/>
	<path d="M936.6,996.4v4.8h8.3v-4.8h2.7v12.3H945v-5.3h-8.3v5.3H934v-12.3H936.6z"/>
	<path d="M960,998.6v1l-6.9,7.2h6.9v1.9h-10.6v-1.1l6.9-7.2h-6.2v-1.8H960z"/>
	<path d="M947.3,986v-9.7h-3.9l-9.7,9.8l-0.1,0.1v2.5h10v3.1h3.6v-3.1h2.6V986H947.3z M938,986l5.8-5.9v5.9H938z"/>
</g>
<g>
	<polygon class="st0" points="8.1,20.9 11.4,20.9 11.4,33.4 15,33.4 15,18.2 8.1,18.2 	"/>
	<path class="st0" d="M22.9,38.3V43h8.3v-4.8h2.7v12.3h-2.7v-5.3h-8.3v5.3h-2.7V38.3H22.9z"/>
	<path class="st0" d="M46.3,40.5v1l-6.9,7.2h6.9v1.9H35.7v-1.1l6.9-7.2h-6.2v-1.8H46.3z"/>
	<path class="st0" d="M33.1,30.9h-8.3V29l9.1-3.7c0.3-0.1,0.6-0.3,0.9-0.5c0.3-0.2,0.5-0.4,0.6-0.6c0.2-0.2,0.3-0.5,0.4-0.7
		c0.1-0.3,0.1-0.6,0.1-0.9v-2.9c0-0.3-0.1-0.7-0.2-1c-0.2-0.3-0.4-0.6-0.6-0.8c-0.3-0.2-0.6-0.4-0.9-0.5c-0.3-0.1-0.7-0.2-1.1-0.2
		h-8.4c-0.4,0-0.8,0.1-1.1,0.2c-0.3,0.1-0.7,0.3-0.9,0.5c-0.3,0.2-0.5,0.5-0.6,0.8c-0.2,0.3-0.2,0.6-0.2,1V22h3.1V20h7.9v2.9
		l-9.1,3.7c-0.3,0.1-0.6,0.3-0.9,0.5c-0.3,0.2-0.5,0.4-0.6,0.6c-0.2,0.2-0.3,0.5-0.4,0.7c-0.1,0.3-0.1,0.6-0.1,0.9v4.4h14.5v-4.8
		h-3.1V30.9z"/>
	<path class="st0" d="M56,18.7c-0.2-0.3-0.4-0.6-0.6-0.8c-0.3-0.2-0.6-0.4-0.9-0.5c-0.3-0.1-0.7-0.2-1.1-0.2H44
		c-0.4,0-0.8,0.1-1.1,0.2c-0.3,0.1-0.7,0.3-0.9,0.5c-0.3,0.2-0.5,0.5-0.6,0.8c-0.2,0.3-0.2,0.6-0.2,1v11.4c0,0.3,0.1,0.7,0.2,1
		c0.2,0.3,0.4,0.6,0.6,0.8c0.3,0.2,0.6,0.4,0.9,0.5c0.3,0.1,0.7,0.2,1.1,0.2h9.3c0.4,0,0.8-0.1,1.1-0.2c0.4-0.1,0.7-0.3,0.9-0.5
		c0.3-0.2,0.5-0.5,0.6-0.8c0.2-0.3,0.2-0.6,0.2-1V19.7C56.2,19.4,56.1,19,56,18.7z M53.1,20v10.9h-8.8V20H53.1z"/>
</g>
</svg>
