<?xml version="1.0" encoding="utf-8"?>
<!-- Generator: Adobe Illustrator 25.4.1, SVG Export Plug-In . SVG Version: 6.00 Build 0)  -->
<svg version="1.1" xmlns="http://www.w3.org/2000/svg" xmlns:xlink="http://www.w3.org/1999/xlink" x="0px" y="0px"
	 viewBox="0 0 100 99.6" style="enable-background:new 0 0 100 99.6;" xml:space="preserve">
<style type="text/css">
	.st0{fill:#FFFFFF;}
</style>
<g id="Layer_2">
</g>
<g id="Layer_1">
	<path class="st0" d="M90,69.3l-8.8-5.1l7.4-3.2c1.6-0.7,2.4-2.6,1.7-4.2c-0.7-1.6-2.6-2.4-4.2-1.7l-11.9,5.1L56.5,50l17.6-10.2
		L86,44.9c0.4,0.2,0.8,0.3,1.3,0.3c1.3,0,2.5-0.7,3-2c0.7-1.6-0.1-3.5-1.7-4.2l-7.4-3.2l8.8-5.1c1.5-0.9,2.1-2.9,1.2-4.4
		s-2.9-2.1-4.4-1.2L78,30.2l1-8c0.2-1.8-1-3.4-2.8-3.6s-3.4,1-3.6,2.8L71,34.2L53.2,44.4V24l10.3-7.8c1.4-1.1,1.7-3.1,0.6-4.5
		S61,10,59.6,11.1l-6.4,4.8V5.7c0-1.8-1.4-3.2-3.2-3.2s-3.2,1.4-3.2,3.2v10.2l-6.4-4.8c-1.4-1.1-3.5-0.8-4.5,0.6
		c-1.1,1.4-0.8,3.5,0.6,4.5L46.8,24v20.3L29.1,34.2l-1.6-12.8c-0.2-1.8-1.8-3.1-3.6-2.8c-1.8,0.2-3,1.8-2.8,3.6l1,8l-8.8-5.1
		c-1.5-0.9-3.5-0.4-4.4,1.2C8,27.8,8.5,29.8,10,30.7l8.8,5.1L11.4,39c-1.6,0.7-2.4,2.6-1.7,4.2c0.5,1.2,1.7,2,3,2
		c0.4,0,0.9-0.1,1.3-0.3l11.9-5.1L43.5,50L25.9,60.2L14,55.1c-1.6-0.7-3.5,0.1-4.2,1.7c-0.7,1.6,0.1,3.5,1.7,4.2l7.4,3.2L10,69.3
		c-1.5,0.9-2.1,2.9-1.2,4.4c0.6,1,1.7,1.6,2.8,1.6c0.6,0,1.1-0.1,1.6-0.4l8.8-5.1l-1,8c-0.2,1.8,1,3.4,2.8,3.6c0.1,0,0.3,0,0.4,0
		c1.6,0,3-1.2,3.2-2.8L29,65.8l17.6-10.2V76l-10.3,7.8c-1.4,1.1-1.7,3.1-0.6,4.5c1.1,1.4,3.1,1.7,4.5,0.6l6.4-4.8v10.2
		c0,1.8,1.4,3.2,3.2,3.2s3.2-1.4,3.2-3.2V84.1l6.4,4.8c0.6,0.4,1.3,0.7,1.9,0.7c1,0,2-0.4,2.6-1.3c1.1-1.4,0.8-3.5-0.6-4.5L53.2,76
		V55.6l17.6,10.2l1.6,12.8c0.2,1.6,1.6,2.8,3.2,2.8c0.1,0,0.3,0,0.4,0c1.8-0.2,3-1.8,2.8-3.6l-1-8l8.8,5.1c0.5,0.3,1.1,0.4,1.6,0.4
		c1.1,0,2.2-0.6,2.8-1.6C92,72.2,91.5,70.2,90,69.3z"/>
</g>
</svg>
