<svg xmlns="http://www.w3.org/2000/svg" width="79.87" height="80.03" viewBox="0 0 79.87 80.03">
  <defs>
    <style>
      .cls-1 {
        fill: #76b900;
        fill-rule: evenodd;
      }
    </style>
  </defs>
  <path id="faq.svg" class="cls-1" d="M4633.32,6477a40.02,40.02,0,1,0,39.94,40.02A39.966,39.966,0,0,0,4633.32,6477Zm4,68.03h-7.99v-8h7.99v8Zm8.25-30.99-3.58,3.68c-2.87,2.88-4.67,5.3-4.67,11.31h-7.99v-2a16.068,16.068,0,0,1,4.67-11.33l4.98-5.04a7.993,7.993,0,1,0-13.64-5.65h-7.99a15.975,15.975,0,1,1,31.95,0A12.735,12.735,0,0,1,4645.57,6514.04Z" transform="translate(-4593.38 -6477)"/>
</svg>
