<svg xmlns="http://www.w3.org/2000/svg" width="150.75" height="23.03" viewBox="0 0 150.75 23.03">
  <defs>
    <style>
      .cls-1 {
        fill: #fff;
        fill-rule: evenodd;
      }
    </style>
  </defs>
  <path id="GEFORCE-Logo.svg" class="cls-1" d="M1171.58,1065.34a3.888,3.888,0,0,1,3.89-3.86h14.82v4.16h-12.92a1.2,1.2,0,0,0-1.2,1.13v10.79a1.155,1.155,0,0,0,.35.8l1.64,1.62a1.153,1.153,0,0,0,.85.34h6.27a1.146,1.146,0,0,0,1.17-1.11v-4.18h-5.51v-4.16h10.14v9.77a3.869,3.869,0,0,1-3.91,3.81h-10.42a1.168,1.168,0,0,1-.85-0.33l-3.98-3.91a1.187,1.187,0,0,1-.34-0.81v-14.06h0Zm23.78-3.86v23.01h16.37v-4.08h-11.81v-5.36h9.49v-4.08h-9.49v-5.41h11.81v-4.08h-16.37Zm19.46,0v23.01h4.55v-9.46h9.5v-4.08h-9.5v-5.39h11.82v-4.08h-16.37Zm32.89,18.93a1.142,1.142,0,0,0,1.16-1.1v-12.54a1.185,1.185,0,0,0-1.16-1.18h-8.09a1.185,1.185,0,0,0-1.16,1.18v12.5a1.137,1.137,0,0,0,1.13,1.14h8.12Zm-13.77-15.07a3.864,3.864,0,0,1,3.87-3.86h11.72a3.869,3.869,0,0,1,3.87,3.85v15.33a3.824,3.824,0,0,1-3.86,3.8h-11.73a3.833,3.833,0,0,1-3.87-3.8h0v-15.32Zm27.93,5.7h7.61a1.136,1.136,0,0,0,1.16-1.1v-3.17a1.185,1.185,0,0,0-1.16-1.18h-7.61v5.45Zm14.93,13.45h-4.92l-5.75-9.37h-4.26v9.37h-4.54v-23.01h14.02a3.875,3.875,0,0,1,3.9,3.85v5.92a3.875,3.875,0,0,1-3.9,3.85h-0.27Zm17.97-18.91h-9.89a1.161,1.161,0,0,0-1.16,1.13v12.54a1.135,1.135,0,0,0,1.13,1.13h9.92v4.11h-11.69a3.86,3.86,0,0,1-3.9-3.81v-15.34a3.873,3.873,0,0,1,3.88-3.86h11.71v4.1Zm3.78-4.1v23.01h16.38v-4.08h-11.82v-5.36h9.49v-4.08h-9.49v-5.41h11.82v-4.08h-16.38Zm21.66,2.1h0.13a0.118,0.118,0,0,0,.15-0.09v-0.32a0.115,0.115,0,0,0-.1-0.13,0.045,0.045,0,0,0-.05,0h-0.13v0.54Zm0.69,0.12,0.34,0.73h-0.73l-0.25-.62h-0.05v0.62h-0.66v-1.85h1.11a0.417,0.417,0,0,1,.5.34,0.277,0.277,0,0,1,.01.09v0.36a0.31,0.31,0,0,1-.27.33h0Zm-0.58,1.22a1.414,1.414,0,0,0,1.46-1.35,1.406,1.406,0,0,0-2.81-.11v0.06a1.37,1.37,0,0,0,1.33,1.4h0.02Zm0-3.4a2.005,2.005,0,1,1-2.04,2,2.008,2.008,0,0,1,2.04-2" transform="translate(-1171.56 -1061.47)"/>
</svg>
